<svg xmlns="http://www.w3.org/2000/svg" viewBox="0 0 64 64" width="64" height="64">
  <defs>
    <linearGradient id="g" x1="0" y1="0" x2="1" y2="1">
      <stop offset="0" stop-color="#0ea5e9"/>
      <stop offset="1" stop-color="#3b82f6"/>
    </linearGradient>
  </defs>
  <g fill="none" stroke="none">
    <!-- Escudo -->
    <path d="M32 4l20 8v16c0 13.255-9.373 24.87-20 28-10.627-3.13-20-14.745-20-28V12z" fill="url(#g)"/>
    <!-- SG monograma -->
    <path d="M22 23c0-4 3.5-7 9-7 3.4 0 6.3 1.2 8 3l-3.2 2.5c-1.2-1.2-3-1.9-4.8-1.9-3.3 0-5.4 1.8-5.4 4 0 2.3 2.1 3.4 6.1 3.9 5.7.7 9.2 2.7 9.2 7.4 0 4.7-4.1 8-10.2 8-4 0-7.5-1.3-9.9-3.8l3.1-2.7c1.7 1.7 4.3 2.7 6.9 2.7 3.7 0 6.2-1.7 6.2-4.1 0-2.2-1.7-3.2-5.9-3.8-6-.9-10-3-10-7.2z" fill="#ffffff" opacity="0.95"/>
  </g>
</svg>